<svg width="36" height="36" viewBox="0 0 36 36" fill="none" xmlns="http://www.w3.org/2000/svg">
<path fill-rule="evenodd" clip-rule="evenodd" d="M20.1903 6.24578L25.9321 5.67991C26.0363 5.66964 26.1398 5.66197 26.2427 5.65683L26.3396 5.73305C24.6704 -0.870331 19.663 -1.69571 15.6374 2.87655L15.0926 3.50878C15.7965 3.64864 16.4951 3.91959 17.1585 4.33722L20.1903 6.24578ZM8.93301 9.40912C9.04803 5.7209 13.1782 3.56286 16.3182 5.55033L32.3408 15.6918C35.4421 17.6548 35.2509 22.2009 31.9955 23.9018L15.3862 32.5803C12.1308 34.2812 8.23256 31.8719 8.34615 28.2291L8.93301 9.40912ZM6.21174 30.1555C-0.367359 28.8449 -2.03654 25.5433 2.73348 20.4696L3.40031 19.6919C3.46264 19.7886 3.52822 19.8844 3.59712 19.9792L6.98607 24.6444L6.87304 28.2677C6.85017 29.0009 6.95737 29.6941 7.17034 30.3323L6.21174 30.1555ZM28.0897 31.7315L30.0938 26.6164L33.2574 24.7421C33.9238 24.3472 34.4758 23.8572 34.9138 23.3045L35.2311 24.0559C37.1891 29.6703 35.5199 32.9719 28.9081 32.2385L27.926 32.1115C27.9842 31.988 28.0388 31.8613 28.0897 31.7315ZM17.6928 33.2218L28.5325 27.5726L26.2445 32.5805C24.3722 36.6787 18.8283 37.0987 16.0131 33.8108C16.5782 33.7019 17.1428 33.5085 17.6928 33.2218ZM21.5612 7.3876L32.0934 14.079C32.5835 14.3904 33.0079 14.7537 33.3669 15.155C35.218 10.9839 31.8565 6.36362 27.2791 6.81889L21.5612 7.3876ZM7.52519 10.0929C7.54414 9.48162 7.65078 8.90398 7.83062 8.36758C2.13633 9.035 1.13381 14.0664 3.77623 17.7275L7.14393 22.3935L7.52519 10.0929Z" fill="url(#paint0_linear_1362_8070)"/>
<defs>
<linearGradient id="paint0_linear_1362_8070" x1="34.4513" y1="36" x2="-3.02991" y2="5.65494" gradientUnits="userSpaceOnUse">
<stop stop-color="#209A7A"/>
<stop offset="1" stop-color="#3DD88C"/>
</linearGradient>
</defs>
</svg>
