<svg width="22" height="22" viewBox="0 0 22 22" fill="none" xmlns="http://www.w3.org/2000/svg">
<path fill-rule="evenodd" clip-rule="evenodd" d="M12.0958 3.78344L15.5357 3.44066C15.5981 3.43444 15.6601 3.42979 15.7218 3.42668L15.7799 3.47285C14.7799 -0.527211 11.7799 -1.02719 9.36826 1.7425L9.04188 2.12548C9.46357 2.2102 9.88211 2.37433 10.2796 2.62732L12.0958 3.78344ZM5.35183 5.6997C5.42073 3.46553 7.89511 2.15827 9.77625 3.3622L19.3752 9.50552C21.2331 10.6946 21.1186 13.4484 19.1684 14.4788L9.21784 19.7358C7.26757 20.7662 4.93219 19.3067 5.00024 17.1001L5.35183 5.6997ZM3.72139 18.2667C-0.220081 17.4728 -1.22007 15.4728 1.6376 12.3994L2.03709 11.9282C2.07443 11.9868 2.11372 12.0448 2.155 12.1023L4.18529 14.9283L4.11757 17.1231C4.10387 17.5672 4.16809 17.9871 4.29568 18.3737L3.72139 18.2667ZM16.8285 19.2215L18.0291 16.123L19.9244 14.9876C20.3236 14.7484 20.6543 14.4516 20.9167 14.1168L21.1068 14.5719C22.2799 17.9729 21.2799 19.9729 17.3187 19.5286L16.7304 19.4517C16.7653 19.3769 16.798 19.3002 16.8285 19.2215ZM10.5996 20.1243L17.0936 16.7023L15.7228 19.7359C14.6011 22.2184 11.2799 22.4728 9.59333 20.4811C9.93183 20.4151 10.2701 20.298 10.5996 20.1243ZM12.9172 4.47507L19.227 8.52847C19.5206 8.71711 19.7748 8.93714 19.9899 9.18022C21.0989 6.65358 19.085 3.85478 16.3428 4.13057L12.9172 4.47507ZM4.50827 6.11361C4.51962 5.74333 4.58351 5.39342 4.69124 5.06849C1.27986 5.47279 0.679255 8.52062 2.26231 10.7384L4.27986 13.5648L4.50827 6.11361Z" fill="url(#paint0_linear)"/>
<defs>
<linearGradient id="paint0_linear" x1="21.7799" y1="34.4728" x2="-12.2772" y2="25.3542" gradientUnits="userSpaceOnUse">
<stop stop-color="#209A7A"/>
<stop offset="0.46875" stop-color="#3DD88C"/>
<stop offset="1" stop-color="#D4FF00"/>
</linearGradient>
</defs>
</svg>
